# xmcd CD database file generated by Grip 3.3.1
# 
# Track frame offsets:
#       150
#       13380
#       28147
#       43517
#       57577
#       71110
#       85555
#       99912
#       113247
#       126700
#       137605
#       152495
#       167575
#       180825
#       195582
#       210842
# 
# Disc length: 3001 seconds
# 
# Revision: 2
# Processed by: cddbd v1.5.1PL2 Copyright (c) Steve Scherf et al.
# Submitted via: Grip 3.3.1
# 
DISCID=d30bb710
DTITLE=Billie Holiday - The Legend Of Billie Holliday
DYEAR=1985
DGENRE=Blues
TTITLE0=That Ole Devil Called Love
TTITLE1=Lover Man (Oh, Where Can You Be?)
TTITLE2=Don't Explain
TTITLE3=Good Morning Heartache
TTITLE4=There Is No Greater Love
TTITLE5=Easy Living
TTITLE6=Solitude
TTITLE7=Porgy
TTITLE8=My Man (Mon Homme)
TTITLE9=Them There Eyes
TTITLE10=Now Or Never
TTITLE11=T'Aint Nobody's Business If I Do
TTITLE12=Somebody's On My Mind
TTITLE13=Keeps On A Rainin'
TTITLE14=You're My Thrill
TTITLE15=God Bless The Child
EXTD=
EXTT0=
EXTT1=
EXTT2=
EXTT3=
EXTT4=
EXTT5=
EXTT6=
EXTT7=
EXTT8=
EXTT9=
EXTT10=
EXTT11=
EXTT12=
EXTT13=
EXTT14=
EXTT15=
PLAYORDER=
